<svg width="206" height="149" viewBox="0 0 206 149" fill="none" xmlns="http://www.w3.org/2000/svg">
<g filter="url(#filter0_i_327_939)">
<path d="M34.6255 125.233L18.9311 89.6089C14.4663 79.4745 12.2339 74.4073 12.6121 69.6186C12.9448 65.4063 14.6496 61.3497 17.4822 58.0302C20.7024 54.2564 26.0554 51.8981 36.7614 47.1815L61.6121 36.2333C72.3181 31.5168 77.6711 29.1585 82.6291 29.3292C86.9903 29.4795 91.1343 30.9594 94.467 33.5568C98.2558 36.5097 100.488 41.5769 104.953 51.7113L107.345 57.1399C111.809 67.2743 114.042 72.3415 113.664 77.1302C113.331 81.3425 111.626 85.3991 108.794 88.7186C105.573 92.4924 100.22 94.8507 89.5144 99.5673L69.2475 108.496C66.8521 109.551 65.6544 110.079 64.6457 110.836C63.7515 111.506 62.9695 112.307 62.3297 113.207C61.6079 114.223 61.1357 115.405 60.1914 117.769L57.6704 124.082C54.1701 132.847 52.4199 137.23 49.8656 138.629C47.6501 139.843 45.0058 139.975 42.7643 138.984C40.18 137.841 38.3285 133.638 34.6255 125.233Z" fill="url(#paint0_linear_327_939)"/>
</g>
<g filter="url(#filter1_d_327_939)">
<path d="M49.3724 75.705C51.7527 81.1079 56.4829 83.2726 61.4905 81.0664C66.4102 78.899 68.0493 73.9283 65.669 68.5254C63.25 63.0346 58.5146 60.9772 53.5949 63.1446C48.5873 65.3507 46.9534 70.2142 49.3724 75.705ZM73.3121 65.1582C75.6924 70.5611 75.275 76.0426 72.8237 80.4794L83.1684 85.6256L74.0757 89.6314L67.7808 86.058C66.7794 86.7615 65.6954 87.3964 64.5094 87.9189C55.7681 91.7699 45.7686 88.36 41.6853 79.0916C37.6021 69.8232 41.854 60.1871 50.5953 56.336C59.3805 52.4656 69.2289 55.8897 73.3121 65.1582Z" fill="white"/>
</g>
<g filter="url(#filter2_i_327_939)">
<path d="M172.38 108.525L184.143 71.4167C187.489 60.8601 189.162 55.5818 188.27 50.8617C187.486 46.7098 185.353 42.8606 182.18 39.8658C178.571 36.4611 172.995 34.6935 161.843 31.1584L135.957 22.9526C124.805 19.4175 119.229 17.6499 114.319 18.3541C109.999 18.9736 106.039 20.8915 103.005 23.8331C99.5568 27.1772 97.8836 32.4555 94.5372 43.0121L92.7447 48.6669C89.3983 59.2235 87.7251 64.5018 88.6172 69.2218C89.402 73.3737 91.5341 77.2229 94.708 80.2178C98.3163 83.6225 103.892 85.39 115.044 88.9251L136.156 95.6173C138.651 96.4083 139.898 96.8038 140.983 97.4472C141.944 98.0176 142.808 98.7295 143.541 99.5554C144.368 100.487 144.965 101.612 146.158 103.861L149.345 109.865C153.77 118.201 155.982 122.37 158.672 123.486C161.006 124.453 163.649 124.3 165.771 123.073C168.217 121.658 169.604 117.28 172.38 108.525Z" fill="url(#paint1_linear_327_939)"/>
</g>
<g filter="url(#filter3_d_327_939)">
<path d="M126.242 75.4723L129.963 70.4077L141.951 74.2079L142.074 80.4909L150.264 83.0872L148.824 47.2822L139.765 44.4104L117.96 72.847L126.242 75.4723ZM133.89 65.0061L141.599 54.5087L141.806 67.5154L133.89 65.0061Z" fill="white"/>
</g>
<defs>
<filter id="filter0_i_327_939" x="12.5703" y="29.3203" width="101.133" height="114.32" filterUnits="userSpaceOnUse" color-interpolation-filters="sRGB">
<feFlood flood-opacity="0" result="BackgroundImageFix"/>
<feBlend mode="normal" in="SourceGraphic" in2="BackgroundImageFix" result="shape"/>
<feColorMatrix in="SourceAlpha" type="matrix" values="0 0 0 0 0 0 0 0 0 0 0 0 0 0 0 0 0 0 127 0" result="hardAlpha"/>
<feOffset dy="4"/>
<feGaussianBlur stdDeviation="5.15"/>
<feComposite in2="hardAlpha" operator="arithmetic" k2="-1" k3="1"/>
<feColorMatrix type="matrix" values="0 0 0 0 0 0 0 0 0 0 0 0 0 0 0 0 0 0 0.5 0"/>
<feBlend mode="normal" in2="shape" result="effect1_innerShadow_327_939"/>
</filter>
<filter id="filter1_d_327_939" x="30.7383" y="49.0781" width="56.4297" height="58.7891" filterUnits="userSpaceOnUse" color-interpolation-filters="sRGB">
<feFlood flood-opacity="0" result="BackgroundImageFix"/>
<feColorMatrix in="SourceAlpha" type="matrix" values="0 0 0 0 0 0 0 0 0 0 0 0 0 0 0 0 0 0 127 0" result="hardAlpha"/>
<feOffset dy="4"/>
<feGaussianBlur stdDeviation="2"/>
<feComposite in2="hardAlpha" operator="out"/>
<feColorMatrix type="matrix" values="0 0 0 0 0 0 0 0 0 0 0 0 0 0 0 0 0 0 0.25 0"/>
<feBlend mode="normal" in2="BackgroundImageFix" result="effect1_dropShadow_327_939"/>
<feBlend mode="normal" in="SourceGraphic" in2="effect1_dropShadow_327_939" result="shape"/>
</filter>
<filter id="filter2_i_327_939" x="88.3789" y="18.2031" width="100.129" height="109.914" filterUnits="userSpaceOnUse" color-interpolation-filters="sRGB">
<feFlood flood-opacity="0" result="BackgroundImageFix"/>
<feBlend mode="normal" in="SourceGraphic" in2="BackgroundImageFix" result="shape"/>
<feColorMatrix in="SourceAlpha" type="matrix" values="0 0 0 0 0 0 0 0 0 0 0 0 0 0 0 0 0 0 127 0" result="hardAlpha"/>
<feOffset dy="4"/>
<feGaussianBlur stdDeviation="5"/>
<feComposite in2="hardAlpha" operator="arithmetic" k2="-1" k3="1"/>
<feColorMatrix type="matrix" values="0 0 0 0 0 0 0 0 0 0 0 0 0 0 0 0 0 0 0.5 0"/>
<feBlend mode="normal" in2="shape" result="effect1_innerShadow_327_939"/>
</filter>
<filter id="filter3_d_327_939" x="113.961" y="40.7266" width="50.4844" height="50.3594" filterUnits="userSpaceOnUse" color-interpolation-filters="sRGB">
<feFlood flood-opacity="0" result="BackgroundImageFix"/>
<feColorMatrix in="SourceAlpha" type="matrix" values="0 0 0 0 0 0 0 0 0 0 0 0 0 0 0 0 0 0 127 0" result="hardAlpha"/>
<feOffset dy="4"/>
<feGaussianBlur stdDeviation="2"/>
<feComposite in2="hardAlpha" operator="out"/>
<feColorMatrix type="matrix" values="0 0 0 0 0 0 0 0 0 0 0 0 0 0 0 0 0 0 0.25 0"/>
<feBlend mode="normal" in2="BackgroundImageFix" result="effect1_dropShadow_327_939"/>
<feBlend mode="normal" in="SourceGraphic" in2="effect1_dropShadow_327_939" result="shape"/>
</filter>
<linearGradient id="paint0_linear_327_939" x1="77.2068" y1="105.309" x2="46.5662" y2="35.7591" gradientUnits="userSpaceOnUse">
<stop stop-color="#3E379F"/>
<stop offset="1" stop-color="#161439"/>
</linearGradient>
<linearGradient id="paint1_linear_327_939" x1="135.727" y1="99.9502" x2="165.269" y2="28.9676" gradientUnits="userSpaceOnUse">
<stop stop-color="#13CFDB"/>
<stop offset="1" stop-color="#054D52"/>
</linearGradient>
</defs>
</svg>
