<svg width="654" height="877" viewBox="0 0 654 877" fill="none" xmlns="http://www.w3.org/2000/svg">
<path d="M197.425 224.23C119.214 216.148 76.1165 260.804 64.344 284.143C387.896 323.347 539.409 282.536 574.721 257.23C556.808 221.014 516.356 213.426 498.369 214.159C433.469 163.468 388.636 184.792 374.331 201.79C293.899 146.898 222.88 193.878 197.425 224.23Z" fill="url(#paint0_linear_150_1210)"/>
<path fill-rule="evenodd" clip-rule="evenodd" d="M584.775 264.546C584.775 264.543 584.775 264.541 576.6 264.43L584.775 264.541L584.928 253.252L574.155 256.628C387.239 315.201 155.199 292.445 62.6161 273.671L52.126 271.544L52.8333 282.224L60.9905 281.684C52.8333 282.224 52.8334 282.226 52.8337 282.229L52.8516 282.498C52.8637 282.677 52.8816 282.944 52.9056 283.295C52.9534 283.997 53.025 285.037 53.1204 286.397C53.3112 289.116 53.5971 293.11 53.9784 298.222C54.7411 308.446 55.8854 323.141 57.413 341.041C60.4677 376.837 65.0577 425.478 71.1976 476.833C77.3347 528.165 85.034 582.324 94.3201 629.117C103.534 675.548 114.513 715.866 127.619 738.7C141.668 763.18 172.384 779.145 208.595 788.693C245.24 798.355 289.467 801.968 333.27 800.199C377.08 798.429 420.942 791.255 456.867 779.028C492.324 766.959 521.941 749.325 534.538 725.289C546.343 702.763 555.086 662.296 561.766 615.604C568.505 568.5 573.301 513.772 576.704 461.824C580.109 409.852 582.126 360.541 583.292 324.232C583.875 306.074 584.246 291.16 584.471 280.782C584.583 275.593 584.659 271.538 584.707 268.777C584.731 267.397 584.748 266.34 584.759 265.627L584.769 264.985L584.771 264.819L584.775 264.546Z" fill="url(#paint1_linear_150_1210)"/>
<path fill-rule="evenodd" clip-rule="evenodd" d="M283.512 462.876C282.861 443.397 264.04 428.218 241.476 428.973C218.911 429.728 201.148 446.131 201.799 465.61L203.947 529.801C204.599 549.28 223.42 564.459 245.984 563.704C268.549 562.949 286.312 546.546 285.66 527.067L284.498 492.339L243.907 501.629L283.583 464.992L283.512 462.876Z" fill="black"/>
<path fill-rule="evenodd" clip-rule="evenodd" d="M451.023 457.27C450.371 437.791 431.551 422.612 408.986 423.367C386.422 424.122 368.658 440.525 369.31 460.004L371.458 524.195C372.11 543.675 390.93 558.853 413.495 558.098C436.059 557.343 453.823 540.94 453.171 521.461L452.009 486.733L411.418 496.023L451.094 459.386L451.023 457.27Z" fill="black"/>
<path fill-rule="evenodd" clip-rule="evenodd" d="M162.259 136.652C121.427 182.18 86.0936 235.283 59.9205 283.411C57.7632 287.378 52.7988 288.845 48.832 286.688C44.8652 284.531 43.3983 279.566 45.5555 275.599C72.2108 226.585 108.246 172.386 150.086 125.734C191.837 79.181 239.875 39.5712 290.65 20.5835C341.874 1.42801 395.807 3.35104 447.743 39.7926C499.155 75.8664 547.786 145.191 590.704 258.872C592.299 263.096 590.167 267.813 585.943 269.408C581.718 271.003 577.001 268.871 575.406 264.647C532.985 152.282 485.865 86.5173 438.351 53.1779C391.36 20.2063 343.192 18.3928 296.378 35.8993C249.115 53.5736 203.18 91.0243 162.259 136.652Z" fill="#49665C"/>
<path d="M409.615 620L256.615 633.294L277.671 665.455C348.135 758.424 392.07 673.889 409.615 620Z" fill="black" stroke="black" stroke-width="20" stroke-linecap="round"/>
<path fill-rule="evenodd" clip-rule="evenodd" d="M247.4 363.668C210.83 351.249 183.736 373.618 174.821 386.416C171.664 390.947 165.431 392.062 160.899 388.905C156.368 385.748 155.253 379.515 158.41 374.984C170.162 358.114 205.601 328.351 253.831 344.731C259.061 346.507 261.86 352.186 260.084 357.415C258.308 362.645 252.629 365.444 247.4 363.668Z" fill="#49665C"/>
<path fill-rule="evenodd" clip-rule="evenodd" d="M475.329 385.949C446.649 359.448 410.25 358.347 396.458 360.933C391.03 361.951 385.805 358.376 384.787 352.947C383.769 347.519 387.344 342.294 392.773 341.276C410.981 337.862 454.382 339.361 488.902 371.26C492.958 375.008 493.208 381.335 489.46 385.391C485.712 389.447 479.385 389.697 475.329 385.949Z" fill="#49665C"/>
<path d="M81.7178 522.5C66.0511 527.5 37.7178 535 10.2178 568.5" stroke="#49665C" stroke-width="20" stroke-linecap="round"/>
<path d="M567.218 508C580.359 511.499 611.718 515 643.718 544" stroke="#49665C" stroke-width="20" stroke-linecap="round"/>
<path d="M266.128 799.768C261.811 814.102 254.651 846.419 248.782 857.934" stroke="#49665C" stroke-width="20" stroke-linecap="round"/>
<ellipse cx="231.887" cy="855.809" rx="26.4796" ry="15" transform="rotate(14.1013 231.887 855.809)" fill="#49665C"/>
<ellipse cx="453.742" cy="844.381" rx="26.4796" ry="15" transform="rotate(-17.4225 453.742 844.381)" fill="#49665C"/>
<path d="M411.218 793.563C414.798 804.077 424.89 829.555 436.616 847.349" stroke="#49665C" stroke-width="20" stroke-linecap="round"/>
<defs>
<linearGradient id="paint0_linear_150_1210" x1="316.357" y1="175.79" x2="320.541" y2="300.811" gradientUnits="userSpaceOnUse">
<stop stop-color="#FFE1B9"/>
<stop offset="1" stop-color="#AB814E"/>
<stop offset="1" stop-color="#FFE1B9" stop-opacity="0"/>
</linearGradient>
<linearGradient id="paint1_linear_150_1210" x1="68.718" y1="302.5" x2="536.218" y2="795.5" gradientUnits="userSpaceOnUse">
<stop stop-color="#BBD5AC"/>
<stop offset="1" stop-color="#4C673C"/>
</linearGradient>
</defs>
</svg>
