<svg width="173" height="184" viewBox="0 0 173 184" fill="none" xmlns="http://www.w3.org/2000/svg">
<g filter="url(#filter0_d_241_4758)">
<path d="M55.846 32.9888C55.8542 32.984 55.8627 32.9785 55.8715 32.9722L55.846 32.9888Z" fill="url(#paint0_linear_241_4758)"/>
<path fill-rule="evenodd" clip-rule="evenodd" d="M4.05453 47.1327C3.56215 40.3581 6.45645 33.9022 10.9808 32.1862L84.17 4.42639C84.939 4.13474 85.7098 3.99716 86.4679 4.00069C87.2464 3.98896 88.0387 4.12592 88.829 4.42562L162.019 32.1809C166.544 33.8968 169.438 40.3535 168.946 47.1288C169.435 53.9003 166.541 60.3515 162.019 62.0669L88.8294 89.8267C88.217 90.0589 87.6034 90.1935 86.9959 90.2369C86.0695 90.3214 85.1189 90.196 84.171 89.8366L10.9811 62.0813C6.45607 60.3653 3.56144 53.9083 4.05453 47.1327ZM104.552 21.993L104.52 21.9977C96.2472 16.8823 86.6411 15.22 77.7155 17.5436C70.8976 19.91 68.3822 22.0524 66.0306 24.0552C65.5832 24.4362 65.1411 24.8128 64.677 25.1843C62.7828 26.7008 61.5023 28.0718 60.4033 29.2564L60.2859 29.383C59.2562 30.4939 58.3403 31.2124 57.0979 32.168L55.8715 32.9722C56.3542 32.6262 57.8171 30.0328 59.2607 27.4736C60.1051 25.9767 60.9433 24.4907 61.5745 23.4739C47.9955 24.5709 40.2123 32.0802 32.3919 47.0327L86.6257 67.6518L140.859 47.0327C127.272 26.7943 119.456 21.1166 108.493 21.5937C110.965 24.0632 112.849 27.13 115.103 31.554L115.833 32.9889C113.684 28.7685 110.112 26.0535 107.393 23.987L107.106 23.7689C106.201 23.0799 105.377 22.509 104.552 21.993Z" fill="url(#paint1_linear_241_4758)"/>
<path d="M86.9927 121.717C86.0674 121.801 85.1178 121.675 84.171 121.316L10.9811 93.5607C6.03264 91.6842 3.03399 84.1378 4.28337 76.7054C4.77898 73.757 5.86861 71.2695 7.31188 69.4583L86.6135 99.5313L165.745 69.5175C167.16 71.3222 168.227 73.7821 168.716 76.6906C169.965 84.1229 166.967 91.6695 162.019 93.5464L88.8295 121.306C88.2159 121.539 87.6012 121.673 86.9927 121.717Z" fill="url(#paint2_linear_241_4758)"/>
<path d="M17.6422 159.64C18.6651 160.08 19.8221 160.299 21.1132 160.299C22.4379 160.299 23.5865 160.045 24.559 159.535C25.5315 159.025 26.2693 158.34 26.7724 157.479C27.2922 156.618 27.5521 155.66 27.5521 154.606C27.5521 153.499 27.2922 152.594 26.7724 151.891C26.2526 151.188 25.6322 150.652 24.9111 150.283C24.2069 149.914 23.2846 149.527 22.1444 149.123C21.0042 148.736 20.1658 148.376 19.6292 148.042C19.0927 147.708 18.8244 147.243 18.8244 146.645C18.8244 146.1 18.9837 145.687 19.3023 145.406C19.6209 145.108 20.04 144.958 20.5599 144.958C21.1635 144.958 21.6582 145.134 22.0438 145.485C22.4295 145.819 22.6391 146.285 22.6726 146.882H27.3257C27.2419 145.143 26.6047 143.79 25.4142 142.823C24.2236 141.839 22.6558 141.347 20.7108 141.347C18.7992 141.347 17.2482 141.839 16.0577 142.823C14.8671 143.79 14.2719 145.134 14.2719 146.856C14.2719 148.016 14.5318 148.956 15.0516 149.677C15.5714 150.397 16.1918 150.942 16.9128 151.311C17.6339 151.68 18.5645 152.049 19.7047 152.418C20.4928 152.664 21.0964 152.884 21.5156 153.077C21.9516 153.27 22.3121 153.516 22.5972 153.815C22.899 154.114 23.0499 154.492 23.0499 154.948C23.0499 155.493 22.8654 155.924 22.4965 156.24C22.1277 156.539 21.6246 156.688 20.9874 156.688C20.367 156.688 19.864 156.512 19.4783 156.161C19.0927 155.792 18.8663 155.265 18.7992 154.579H14.2216C14.2551 155.792 14.5737 156.829 15.1774 157.69C15.7978 158.551 16.6194 159.201 17.6422 159.64Z" fill="url(#paint3_linear_241_4758)"/>
<path fill-rule="evenodd" clip-rule="evenodd" d="M38.1218 156.846H44.7116L45.7679 160.115H50.3204L43.9319 141.611H38.9518L32.5632 160.115H37.0654L38.1218 156.846ZM41.4167 146.592L43.6049 153.367H39.2536L41.4167 146.592Z" fill="url(#paint4_linear_241_4758)"/>
<path d="M71.5814 160.115H67.2805L60.087 148.701V160.115H55.786V141.611H60.087L67.2805 153.077V141.611H71.5814V160.115Z" fill="url(#paint5_linear_241_4758)"/>
<path fill-rule="evenodd" clip-rule="evenodd" d="M89.7148 142.77C88.323 141.997 86.6965 141.611 84.8353 141.611H78.2204V160.115H84.8353C86.6798 160.115 88.2979 159.728 89.6896 158.955C91.0981 158.182 92.1796 157.092 92.9342 155.687C93.7055 154.281 94.0912 152.673 94.0912 150.863C94.0912 149.035 93.7055 147.427 92.9342 146.039C92.1796 144.633 91.1065 143.544 89.7148 142.77ZM88.3566 154.817C87.4511 155.748 86.1851 156.214 84.5586 156.214H82.5213V145.459H84.5586C86.1851 145.459 87.4511 145.933 88.3566 146.882C89.262 147.831 89.7148 149.158 89.7148 150.863C89.7148 152.567 89.262 153.885 88.3566 154.817Z" fill="url(#paint6_linear_241_4758)"/>
<path fill-rule="evenodd" clip-rule="evenodd" d="M110.706 150.626C111.728 150.854 112.55 151.39 113.17 152.233C113.791 153.059 114.101 154.008 114.101 155.08C114.101 156.627 113.581 157.857 112.542 158.771C111.519 159.667 110.085 160.115 108.241 160.115H100.016V141.611H107.964C109.758 141.611 111.158 142.041 112.164 142.902C113.187 143.763 113.699 144.932 113.699 146.408C113.699 147.497 113.422 148.402 112.869 149.123C112.332 149.844 111.611 150.344 110.706 150.626ZM104.317 149.097H107.134C107.838 149.097 108.375 148.938 108.744 148.622C109.129 148.288 109.322 147.805 109.322 147.172C109.322 146.54 109.129 146.056 108.744 145.723C108.375 145.389 107.838 145.222 107.134 145.222H104.317V149.097ZM107.486 156.477C108.207 156.477 108.761 156.31 109.146 155.977C109.549 155.625 109.75 155.124 109.75 154.474C109.75 153.824 109.54 153.314 109.121 152.945C108.719 152.576 108.157 152.392 107.436 152.392H104.317V156.477H107.486Z" fill="url(#paint7_linear_241_4758)"/>
<path fill-rule="evenodd" clip-rule="evenodd" d="M123.89 159.087C125.281 159.895 126.807 160.299 128.467 160.299C130.127 160.299 131.645 159.895 133.02 159.087C134.395 158.279 135.485 157.154 136.29 155.713C137.094 154.254 137.497 152.62 137.497 150.81C137.497 149 137.094 147.374 136.29 145.933C135.501 144.492 134.412 143.368 133.02 142.559C131.645 141.751 130.127 141.347 128.467 141.347C126.807 141.347 125.281 141.751 123.89 142.559C122.515 143.368 121.416 144.492 120.595 145.933C119.79 147.374 119.388 149 119.388 150.81C119.388 152.62 119.79 154.254 120.595 155.713C121.416 157.154 122.515 158.279 123.89 159.087ZM131.838 154.711C130.999 155.695 129.876 156.187 128.467 156.187C127.042 156.187 125.902 155.704 125.047 154.738C124.208 153.754 123.789 152.444 123.789 150.81C123.789 149.158 124.208 147.849 125.047 146.882C125.902 145.916 127.042 145.433 128.467 145.433C129.876 145.433 130.999 145.925 131.838 146.909C132.693 147.875 133.12 149.176 133.12 150.81C133.12 152.427 132.693 153.727 131.838 154.711Z" fill="url(#paint8_linear_241_4758)"/>
<path d="M154.226 160.115L150.629 154.448L147.46 160.115H142.581L148.24 150.705L142.455 141.611H147.46L151.007 147.199L154.126 141.611H159.005L153.396 150.942L159.231 160.115H154.226Z" fill="url(#paint9_linear_241_4758)"/>
<path fill-rule="evenodd" clip-rule="evenodd" d="M57.8269 172.023C57.544 172.181 57.327 172.389 57.1761 172.646V170.066H55.5633V177.381H57.1761V176.609C57.3333 176.867 57.5503 177.074 57.8269 177.232C58.1036 177.384 58.4274 177.46 58.7984 177.46C59.2323 177.46 59.6253 177.344 59.9774 177.114C60.3296 176.876 60.6062 176.544 60.8074 176.115C61.0149 175.68 61.1187 175.179 61.1187 174.613C61.1187 174.046 61.0149 173.548 60.8074 173.12C60.6062 172.692 60.3296 172.362 59.9774 172.132C59.6253 171.901 59.2323 171.786 58.7984 171.786C58.4337 171.786 58.1099 171.865 57.8269 172.023ZM59.138 173.624C59.3644 173.861 59.4775 174.191 59.4775 174.613C59.4775 175.035 59.3644 175.371 59.138 175.621C58.9116 175.865 58.6381 175.987 58.3174 175.987C57.9967 175.987 57.7232 175.865 57.4968 175.621C57.2767 175.377 57.1667 175.044 57.1667 174.623C57.1667 174.201 57.2767 173.868 57.4968 173.624C57.7232 173.38 57.9967 173.259 58.3174 173.259C58.6444 173.259 58.9179 173.38 59.138 173.624Z" fill="url(#paint10_linear_241_4758)"/>
<path d="M64.0399 180L67.3411 171.865H65.5961L64.3889 175.315L63.1721 171.865H61.3706L63.5117 177.193L62.3044 180H64.0399Z" fill="url(#paint11_linear_241_4758)"/>
<path d="M71.5359 170.441V177.381H69.9231V170.441H71.5359Z" fill="url(#paint12_linear_241_4758)"/>
<path d="M74.3176 173.199V171.796H76.7605V170.441H72.7048V177.381H76.7605V176.026H74.3176V174.504H76.4775V173.199H74.3176Z" fill="url(#paint13_linear_241_4758)"/>
<path d="M79.4204 171.796V173.199H81.5804V174.504H79.4204V176.026H81.8633V177.381H77.8076V170.441H81.8633V171.796H79.4204Z" fill="url(#paint14_linear_241_4758)"/>
<path d="M84.5233 173.199V171.796H86.9662V170.441H82.9104V177.381H86.9662V176.026H84.5233V174.504H86.6832V173.199H84.5233Z" fill="url(#paint15_linear_241_4758)"/>
<path d="M91.6249 170.441V177.381H90.012V170.441H91.6249Z" fill="url(#paint16_linear_241_4758)"/>
<path d="M97.5568 171.796V170.441H92.4353V171.796H94.1896V177.381H95.8025V171.796H97.5568Z" fill="url(#paint17_linear_241_4758)"/>
<path fill-rule="evenodd" clip-rule="evenodd" d="M102.375 173.822C102.758 173.908 103.067 174.109 103.299 174.425C103.532 174.735 103.648 175.091 103.648 175.493C103.648 176.072 103.453 176.534 103.063 176.876C102.68 177.212 102.142 177.381 101.451 177.381H98.3663V170.441H101.347C102.02 170.441 102.545 170.603 102.922 170.926C103.306 171.249 103.497 171.687 103.497 172.24C103.497 172.649 103.394 172.988 103.186 173.259C102.985 173.529 102.714 173.717 102.375 173.822ZM99.9792 173.249H101.036C101.3 173.249 101.501 173.189 101.639 173.071C101.784 172.945 101.856 172.764 101.856 172.527C101.856 172.29 101.784 172.109 101.639 171.983C101.501 171.858 101.3 171.796 101.036 171.796H99.9792V173.249ZM101.168 176.016C101.438 176.016 101.645 175.954 101.79 175.829C101.941 175.697 102.016 175.509 102.016 175.265C102.016 175.021 101.938 174.83 101.781 174.692C101.63 174.553 101.419 174.484 101.149 174.484H99.9792V176.016H101.168Z" fill="url(#paint18_linear_241_4758)"/>
<path d="M107.677 177.203C108.06 177.367 108.494 177.45 108.978 177.45C109.475 177.45 109.906 177.354 110.27 177.163C110.635 176.972 110.912 176.715 111.1 176.392C111.295 176.069 111.393 175.71 111.393 175.315C111.393 174.899 111.295 174.56 111.1 174.296C110.905 174.033 110.673 173.832 110.402 173.693C110.138 173.555 109.792 173.41 109.365 173.259C108.937 173.114 108.623 172.978 108.422 172.853C108.22 172.728 108.12 172.553 108.12 172.329C108.12 172.125 108.18 171.97 108.299 171.865C108.419 171.753 108.576 171.697 108.771 171.697C108.997 171.697 109.183 171.763 109.327 171.894C109.472 172.02 109.55 172.194 109.563 172.418H111.308C111.276 171.766 111.037 171.258 110.591 170.896C110.145 170.527 109.557 170.342 108.827 170.342C108.11 170.342 107.529 170.527 107.082 170.896C106.636 171.258 106.413 171.763 106.413 172.408C106.413 172.843 106.51 173.196 106.705 173.466C106.9 173.736 107.133 173.941 107.403 174.079C107.673 174.217 108.022 174.356 108.45 174.494C108.745 174.586 108.972 174.669 109.129 174.741C109.293 174.814 109.428 174.906 109.535 175.018C109.648 175.13 109.704 175.272 109.704 175.443C109.704 175.647 109.635 175.809 109.497 175.927C109.359 176.039 109.17 176.095 108.931 176.095C108.698 176.095 108.51 176.03 108.365 175.898C108.22 175.759 108.136 175.562 108.11 175.305H106.394C106.406 175.759 106.526 176.148 106.752 176.471C106.985 176.794 107.293 177.038 107.677 177.203Z" fill="url(#paint19_linear_241_4758)"/>
<path fill-rule="evenodd" clip-rule="evenodd" d="M116.394 173.822C116.777 173.908 117.086 174.109 117.318 174.425C117.551 174.735 117.667 175.091 117.667 175.493C117.667 176.072 117.472 176.534 117.082 176.876C116.699 177.212 116.161 177.381 115.47 177.381H112.385V170.441H115.366C116.039 170.441 116.564 170.603 116.941 170.926C117.324 171.249 117.516 171.687 117.516 172.24C117.516 172.649 117.413 172.988 117.205 173.259C117.004 173.529 116.733 173.717 116.394 173.822ZM113.998 173.249H115.055C115.319 173.249 115.52 173.189 115.658 173.071C115.803 172.945 115.875 172.764 115.875 172.527C115.875 172.29 115.803 172.109 115.658 171.983C115.52 171.858 115.319 171.796 115.055 171.796H113.998V173.249ZM115.187 176.016C115.457 176.016 115.664 175.954 115.809 175.829C115.96 175.697 116.035 175.509 116.035 175.265C116.035 175.021 115.957 174.83 115.8 174.692C115.649 174.553 115.438 174.484 115.168 174.484H113.998V176.016H115.187Z" fill="url(#paint20_linear_241_4758)"/>
</g>
<defs>
<filter id="filter0_d_241_4758" x="0" y="0" width="173" height="184" filterUnits="userSpaceOnUse" color-interpolation-filters="sRGB">
<feFlood flood-opacity="0" result="BackgroundImageFix"/>
<feColorMatrix in="SourceAlpha" type="matrix" values="0 0 0 0 0 0 0 0 0 0 0 0 0 0 0 0 0 0 127 0" result="hardAlpha"/>
<feOffset/>
<feGaussianBlur stdDeviation="2"/>
<feComposite in2="hardAlpha" operator="out"/>
<feColorMatrix type="matrix" values="0 0 0 0 0.996667 0 0 0 0 0.961783 0 0 0 0 0.961783 0 0 0 0.25 0"/>
<feBlend mode="normal" in2="BackgroundImageFix" result="effect1_dropShadow_241_4758"/>
<feBlend mode="normal" in="SourceGraphic" in2="effect1_dropShadow_241_4758" result="shape"/>
</filter>
<linearGradient id="paint0_linear_241_4758" x1="122.193" y1="36.3678" x2="46.6389" y2="107.479" gradientUnits="userSpaceOnUse">
<stop stop-color="#AB814E"/>
<stop offset="0.997468" stop-color="white"/>
</linearGradient>
<linearGradient id="paint1_linear_241_4758" x1="122.193" y1="36.3678" x2="46.6389" y2="107.479" gradientUnits="userSpaceOnUse">
<stop stop-color="#AB814E"/>
<stop offset="0.997468" stop-color="white"/>
</linearGradient>
<linearGradient id="paint2_linear_241_4758" x1="122.193" y1="36.3678" x2="46.6389" y2="107.479" gradientUnits="userSpaceOnUse">
<stop stop-color="#AB814E"/>
<stop offset="0.997468" stop-color="white"/>
</linearGradient>
<linearGradient id="paint3_linear_241_4758" x1="122.193" y1="36.3678" x2="46.6389" y2="107.479" gradientUnits="userSpaceOnUse">
<stop stop-color="#AB814E"/>
<stop offset="0.997468" stop-color="white"/>
</linearGradient>
<linearGradient id="paint4_linear_241_4758" x1="122.193" y1="36.3678" x2="46.6389" y2="107.479" gradientUnits="userSpaceOnUse">
<stop stop-color="#AB814E"/>
<stop offset="0.997468" stop-color="white"/>
</linearGradient>
<linearGradient id="paint5_linear_241_4758" x1="122.193" y1="36.3678" x2="46.6389" y2="107.479" gradientUnits="userSpaceOnUse">
<stop stop-color="#AB814E"/>
<stop offset="0.997468" stop-color="white"/>
</linearGradient>
<linearGradient id="paint6_linear_241_4758" x1="122.193" y1="36.3678" x2="46.6389" y2="107.479" gradientUnits="userSpaceOnUse">
<stop stop-color="#AB814E"/>
<stop offset="0.997468" stop-color="white"/>
</linearGradient>
<linearGradient id="paint7_linear_241_4758" x1="122.193" y1="36.3678" x2="46.6389" y2="107.479" gradientUnits="userSpaceOnUse">
<stop stop-color="#AB814E"/>
<stop offset="0.997468" stop-color="white"/>
</linearGradient>
<linearGradient id="paint8_linear_241_4758" x1="122.193" y1="36.3678" x2="46.6389" y2="107.479" gradientUnits="userSpaceOnUse">
<stop stop-color="#AB814E"/>
<stop offset="0.997468" stop-color="white"/>
</linearGradient>
<linearGradient id="paint9_linear_241_4758" x1="122.193" y1="36.3678" x2="46.6389" y2="107.479" gradientUnits="userSpaceOnUse">
<stop stop-color="#AB814E"/>
<stop offset="0.997468" stop-color="white"/>
</linearGradient>
<linearGradient id="paint10_linear_241_4758" x1="122.193" y1="36.3678" x2="46.6389" y2="107.479" gradientUnits="userSpaceOnUse">
<stop stop-color="#AB814E"/>
<stop offset="0.997468" stop-color="white"/>
</linearGradient>
<linearGradient id="paint11_linear_241_4758" x1="122.193" y1="36.3678" x2="46.6389" y2="107.479" gradientUnits="userSpaceOnUse">
<stop stop-color="#AB814E"/>
<stop offset="0.997468" stop-color="white"/>
</linearGradient>
<linearGradient id="paint12_linear_241_4758" x1="122.193" y1="36.3678" x2="46.6389" y2="107.479" gradientUnits="userSpaceOnUse">
<stop stop-color="#AB814E"/>
<stop offset="0.997468" stop-color="white"/>
</linearGradient>
<linearGradient id="paint13_linear_241_4758" x1="122.193" y1="36.3678" x2="46.6389" y2="107.479" gradientUnits="userSpaceOnUse">
<stop stop-color="#AB814E"/>
<stop offset="0.997468" stop-color="white"/>
</linearGradient>
<linearGradient id="paint14_linear_241_4758" x1="122.193" y1="36.3678" x2="46.6389" y2="107.479" gradientUnits="userSpaceOnUse">
<stop stop-color="#AB814E"/>
<stop offset="0.997468" stop-color="white"/>
</linearGradient>
<linearGradient id="paint15_linear_241_4758" x1="122.193" y1="36.3678" x2="46.6389" y2="107.479" gradientUnits="userSpaceOnUse">
<stop stop-color="#AB814E"/>
<stop offset="0.997468" stop-color="white"/>
</linearGradient>
<linearGradient id="paint16_linear_241_4758" x1="122.193" y1="36.3678" x2="46.6389" y2="107.479" gradientUnits="userSpaceOnUse">
<stop stop-color="#AB814E"/>
<stop offset="0.997468" stop-color="white"/>
</linearGradient>
<linearGradient id="paint17_linear_241_4758" x1="122.193" y1="36.3678" x2="46.6389" y2="107.479" gradientUnits="userSpaceOnUse">
<stop stop-color="#AB814E"/>
<stop offset="0.997468" stop-color="white"/>
</linearGradient>
<linearGradient id="paint18_linear_241_4758" x1="122.193" y1="36.3678" x2="46.6389" y2="107.479" gradientUnits="userSpaceOnUse">
<stop stop-color="#AB814E"/>
<stop offset="0.997468" stop-color="white"/>
</linearGradient>
<linearGradient id="paint19_linear_241_4758" x1="122.193" y1="36.3678" x2="46.6389" y2="107.479" gradientUnits="userSpaceOnUse">
<stop stop-color="#AB814E"/>
<stop offset="0.997468" stop-color="white"/>
</linearGradient>
<linearGradient id="paint20_linear_241_4758" x1="122.193" y1="36.3678" x2="46.6389" y2="107.479" gradientUnits="userSpaceOnUse">
<stop stop-color="#AB814E"/>
<stop offset="0.997468" stop-color="white"/>
</linearGradient>
</defs>
</svg>
