<svg width="202" height="287" viewBox="0 0 202 287" fill="none" xmlns="http://www.w3.org/2000/svg">
<path d="M61.2127 72.1188C36.3128 69.5459 22.5918 83.763 18.8438 91.1932C121.853 103.675 170.09 90.6818 181.333 82.6251C175.63 71.095 162.751 68.6792 157.024 68.9126C136.362 52.7739 122.089 59.5628 117.535 64.9746C91.9274 47.4987 69.317 62.4557 61.2127 72.1188Z" fill="url(#paint0_linear_897_2635)"/>
<path fill-rule="evenodd" clip-rule="evenodd" d="M181.931 84.9173L184.534 84.9525L184.582 81.3587L181.153 82.4334C121.644 101.081 47.7695 93.8364 18.2939 87.8594L14.9541 87.1822L15.1793 90.5824L17.7766 90.4104C15.1793 90.5824 15.1793 90.583 15.1794 90.5841L15.1851 90.6696L15.2023 90.9232C15.2175 91.1467 15.2403 91.478 15.2707 91.9109C15.3314 92.7765 15.4225 94.0483 15.5439 95.6758C15.7867 98.9307 16.151 103.609 16.6373 109.308C17.6099 120.704 19.0712 136.19 21.026 152.54C22.9798 168.882 25.431 186.125 28.3875 201.023C31.3209 215.805 34.8164 228.641 38.9888 235.911C43.4617 243.704 53.2407 248.787 64.769 251.827C76.4357 254.903 90.5163 256.053 104.462 255.49C118.41 254.926 132.374 252.643 143.812 248.75C155.1 244.908 164.529 239.293 168.54 231.641C172.298 224.469 175.081 211.586 177.208 196.721C179.354 181.724 180.881 164.3 181.964 147.762C183.048 131.215 183.69 115.516 184.062 103.956C184.247 98.1754 184.365 93.4274 184.437 90.1234C184.473 88.4713 184.497 87.1802 184.512 86.3013C184.52 85.8618 184.525 85.5254 184.529 85.2985L184.532 85.041L184.534 84.9542C184.534 84.9531 184.534 84.9525 181.931 84.9173Z" fill="url(#paint1_linear_897_2635)"/>
<path fill-rule="evenodd" clip-rule="evenodd" d="M88.6207 148.097C88.4132 141.895 82.4213 137.063 75.2375 137.303C68.0536 137.543 62.3982 142.766 62.6057 148.967L63.2896 169.404C63.4971 175.605 69.489 180.438 76.6729 180.197C83.8567 179.957 89.5121 174.735 89.3046 168.533L88.9346 157.477L76.0115 160.435L88.6432 148.77L88.6207 148.097Z" fill="black"/>
<path fill-rule="evenodd" clip-rule="evenodd" d="M141.951 146.312C141.743 140.11 135.752 135.278 128.568 135.518C121.384 135.759 115.729 140.981 115.936 147.182L116.62 167.619C116.827 173.821 122.819 178.653 130.003 178.413C137.187 178.172 142.842 172.95 142.635 166.749L142.265 155.692L129.342 158.65L141.974 146.986L141.951 146.312Z" fill="black"/>
<path fill-rule="evenodd" clip-rule="evenodd" d="M50.0173 44.2364C37.0176 58.7314 25.7684 75.6377 17.4356 90.9603C16.7488 92.2232 15.1683 92.6902 13.9054 92.0034C12.6425 91.3166 12.1755 89.7361 12.8623 88.4732C21.3485 72.8683 32.8212 55.6132 46.1417 40.7606C59.4339 25.9394 74.7279 13.3288 90.8931 7.28372C107.201 1.18519 124.372 1.79742 140.907 13.3993C157.275 24.8842 172.758 46.9552 186.421 83.1475C186.929 84.4924 186.25 85.9943 184.905 86.5021C183.56 87.0098 182.059 86.3312 181.551 84.9862C168.045 49.2127 153.044 28.2751 137.917 17.6608C122.956 7.16362 107.621 6.58627 92.7166 12.1598C77.6696 17.7868 63.0452 29.71 50.0173 44.2364Z" fill="#49665C"/>
<path fill-rule="evenodd" clip-rule="evenodd" d="M85.0218 208.088C84.7976 208.374 84.591 208.708 84.3764 209.113C84.3108 209.238 84.2209 209.385 84.1696 209.47L84.1641 209.479C84.1344 209.528 84.1061 209.574 84.077 209.622C84.0326 209.695 83.9865 209.77 83.9312 209.861C83.758 210.148 83.5688 210.468 83.4068 210.77C83.3649 210.848 83.327 210.921 83.2932 210.988C83.3095 211.385 83.2351 211.791 83.0585 212.177C82.4602 213.484 80.9155 214.058 79.6083 213.46C78.2508 212.838 78.0088 211.545 77.9897 210.99C77.971 210.448 78.1023 209.988 78.1768 209.753C78.3431 209.23 78.6109 208.697 78.8196 208.308C79.046 207.886 79.2903 207.475 79.4773 207.166C79.5347 207.072 79.5947 206.973 79.6446 206.891C79.6719 206.847 79.6961 206.807 79.7151 206.776C79.7674 206.69 79.7859 206.658 79.7859 206.658C80.6244 205.079 81.7064 203.661 83.603 202.563C85.1199 201.685 86.5326 202.474 86.9374 202.728C87.4984 203.08 87.9867 203.564 88.3631 203.978C89.1477 204.84 89.9828 206.007 90.7263 207.12C91.4857 208.257 92.2177 209.442 92.7951 210.39C92.842 210.467 92.8873 210.542 92.9312 210.614C94.3998 209.09 95.8888 207.651 97.501 206.202C97.3835 206.307 98.0512 205.66 98.4462 205.344C98.6995 205.142 99.0664 204.874 99.5065 204.665C99.9023 204.478 100.691 204.175 101.646 204.364C102.709 204.574 103.516 205.149 104.069 205.656C104.628 206.168 105.088 206.759 105.442 207.252C105.649 207.54 105.897 207.906 106.101 208.207C106.209 208.368 106.305 208.51 106.377 208.612C106.507 208.8 106.613 208.944 106.702 209.057C106.746 209.111 106.78 209.152 106.806 209.18C106.831 209.208 106.843 209.219 106.843 209.219M106.843 209.219C107.055 209.414 107.4 209.692 107.757 209.909C107.896 209.995 108.015 210.057 108.108 210.099C108.19 210.048 108.325 209.953 108.519 209.78C108.754 209.569 108.995 209.318 109.276 209.014C109.313 208.974 109.353 208.93 109.396 208.884C109.625 208.635 109.915 208.319 110.183 208.065C110.328 207.927 110.513 207.731 110.784 207.439C110.802 207.42 110.82 207.4 110.839 207.38C111.079 207.121 111.37 206.808 111.674 206.503C112.26 205.915 113.223 205.009 114.4 204.565C115.732 204.063 116.819 204.752 117.027 204.883L117.03 204.885C117.409 205.126 117.722 205.422 117.935 205.64C118.383 206.098 118.838 206.679 119.214 207.187C119.605 207.715 119.976 208.254 120.26 208.673C120.365 208.828 120.462 208.973 120.542 209.092C120.569 209.132 120.594 209.17 120.617 209.204C120.682 209.301 120.719 209.355 120.736 209.38C120.748 209.398 120.75 209.401 120.746 209.395C120.819 209.493 120.904 209.612 120.979 209.716C121.002 209.749 121.024 209.78 121.044 209.808C121.142 209.944 121.238 210.075 121.338 210.205C121.436 210.332 121.528 210.445 121.615 210.544C121.932 210.234 122.272 209.795 122.686 209.174C122.793 209.013 122.912 208.827 123.042 208.625C123.569 207.803 124.274 206.705 125.083 205.862C125.113 205.831 125.149 205.792 125.191 205.748C125.399 205.528 125.738 205.169 126.091 204.855C126.511 204.482 127.185 203.948 128.063 203.66C129.429 203.213 130.9 203.957 131.347 205.323C131.787 206.667 131.075 208.111 129.752 208.584C129.714 208.609 129.648 208.658 129.553 208.743C129.383 208.894 129.24 209.046 129.044 209.252C128.981 209.318 128.914 209.389 128.838 209.467C128.413 209.91 128.084 210.421 127.612 211.151C127.438 211.422 127.243 211.723 127.017 212.061C126.3 213.138 125.265 214.566 123.647 215.491C122.605 216.088 121.488 216.17 120.483 215.888C119.574 215.632 118.873 215.115 118.398 214.688C117.624 213.991 116.954 213.045 116.673 212.647C116.628 212.584 116.593 212.534 116.569 212.502C116.484 212.388 116.316 212.138 116.147 211.886C116.079 211.785 116.011 211.684 115.949 211.591C115.707 211.235 115.421 210.819 115.128 210.417C114.97 210.582 114.81 210.754 114.641 210.936L114.599 210.981C114.351 211.248 114.053 211.57 113.766 211.842C113.638 211.963 113.496 212.117 113.266 212.367C113.215 212.422 113.159 212.483 113.099 212.548C112.805 212.866 112.422 213.273 111.99 213.66C111.212 214.355 109.773 215.451 107.858 215.339C106.699 215.272 105.674 214.737 105.044 214.352C104.344 213.925 103.73 213.429 103.317 213.05C102.812 212.585 102.393 212.002 102.102 211.583C101.941 211.352 101.815 211.164 101.697 210.99C101.541 210.757 101.4 210.548 101.217 210.293C101.149 210.199 101.085 210.113 101.025 210.034C101.01 210.047 100.996 210.061 100.981 210.074C99.15 211.719 97.491 213.348 95.8241 215.127C95.7868 215.166 95.7458 215.21 95.7022 215.257C95.5178 215.456 95.2858 215.705 95.0799 215.902C94.8539 216.117 94.3358 216.598 93.5881 216.842C92.5969 217.164 91.6254 216.957 90.8712 216.457C90.2798 216.065 89.873 215.528 89.6147 215.153C89.4383 214.897 89.1063 214.348 88.7314 213.729C88.6071 213.523 88.4781 213.31 88.3485 213.097C87.7816 212.166 87.0949 211.056 86.3974 210.012C85.9027 209.271 85.4337 208.611 85.0218 208.088M93.9939 212.324C93.9939 212.324 93.9913 212.321 93.986 212.314C93.9913 212.32 93.9939 212.324 93.9939 212.324Z" fill="black"/>
<path d="M23.8987 173.793C18.8706 175.409 -1.13552 171.531 26.145 140.181" stroke="#49665C" stroke-width="23.3922" stroke-linecap="round"/>
<path d="M179.364 162.404C183.317 163.518 186.432 176.677 189.891 191.644" stroke="#49665C" stroke-width="23.3922" stroke-linecap="round"/>
<path d="M77.8376 255.052C77.8708 259.818 78.7286 270.321 78.0252 274.376" stroke="#49665C" stroke-width="23.3922" stroke-linecap="round"/>
<ellipse cx="72.6859" cy="275.316" rx="8.43032" ry="4.77555" transform="rotate(-3.05984 72.6859 275.316)" fill="#49665C"/>
<ellipse cx="134.33" cy="271.911" rx="8.43032" ry="4.77555" transform="rotate(1.72329 134.33 271.911)" fill="#49665C"/>
<path d="M126.847 252.187C126.826 255.723 127.201 264.439 128.87 271.016" stroke="#49665C" stroke-width="23.3922" stroke-linecap="round"/>
<path d="M53.0459 126.146C54.3246 119.035 61.2595 110.941 68.4551 110.941C74.6896 110.941 77.961 112.481 82.2862 116.854" stroke="#49665C" stroke-width="23.3922" stroke-linecap="round"/>
<path d="M127.901 121.836C131.636 120.008 140.841 118.31 147.785 126.146" stroke="#49665C" stroke-width="23.3922" stroke-linecap="round"/>
<defs>
<linearGradient id="paint0_linear_897_2635" x1="99.0773" y1="56.697" x2="100.409" y2="96.4999" gradientUnits="userSpaceOnUse">
<stop stop-color="#FFE1B9"/>
<stop offset="1" stop-color="#AB814E"/>
<stop offset="1" stop-color="#FFE1B9" stop-opacity="0"/>
</linearGradient>
<linearGradient id="paint1_linear_897_2635" x1="20.2365" y1="97.0377" x2="169.075" y2="253.994" gradientUnits="userSpaceOnUse">
<stop stop-color="#BBD5AC"/>
<stop offset="1" stop-color="#4C673C"/>
</linearGradient>
</defs>
</svg>
